P3
4 4
255
  0   0   0  40  40  40   0   0   0 255 255 255 
  0   0   0 232 232 232   0   0   0   0   0   0 
  0   0   0   0   0   0 112 112 112   0   0   0 
255 255 255   0   0   0   0   0   0 255 255 255 
